<?xml version="1.0" standalone="no"?>
<!DOCTYPE svg PUBLIC "-//W3C//DTD SVG 20010904//EN"
 "http://www.w3.org/TR/2001/REC-SVG-20010904/DTD/svg10.dtd">
<svg version="1.0" xmlns="http://www.w3.org/2000/svg"
 width="700.000000pt" height="700.000000pt" viewBox="0 0 700.000000 700.000000"
 preserveAspectRatio="xMidYMid meet">
<metadata>
Created by potrace 1.11, written by Peter Selinger 2001-2013
</metadata>
<g transform="translate(0.000000,700.000000) scale(0.100000,-0.100000)"
fill="#000000" stroke="none">
<path d="M3463 6795 c-12 -9 -54 -33 -92 -55 -111 -63 -131 -74 -226 -130 -49
-29 -110 -64 -135 -78 -25 -14 -78 -45 -118 -69 -41 -24 -76 -43 -78 -43 -2 0
-21 -11 -42 -23 -20 -13 -113 -68 -207 -122 -429 -247 -573 -331 -1065 -615
-289 -166 -538 -311 -555 -320 -99 -57 -273 -158 -292 -170 l-23 -15 0 -1656
0 -1657 338 -195 c549 -318 1484 -858 1522 -880 19 -10 252 -145 517 -298 265
-154 487 -279 493 -279 5 0 85 44 177 97 93 53 177 102 188 108 11 6 39 23 62
38 24 15 45 27 48 27 3 0 51 27 106 60 55 33 101 60 103 60 2 0 66 37 142 81
77 45 155 91 174 102 69 38 118 66 300 172 102 59 199 115 215 125 66 38 372
214 400 231 17 10 41 24 55 32 14 7 102 58 195 112 342 198 413 239 558 322
l147 85 0 1658 0 1658 -427 247 c-236 136 -444 257 -463 267 -19 11 -93 54
-165 96 -71 41 -146 84 -165 95 -19 11 -195 112 -390 225 -195 113 -368 213
-385 222 -16 10 -218 126 -448 259 -230 132 -423 241 -430 241 -7 0 -22 -7
-34 -15z m229 -596 c106 -62 207 -119 223 -129 17 -9 102 -59 190 -110 88 -51
176 -102 195 -112 30 -17 256 -148 1300 -751 85 -49 194 -111 241 -139 62 -35
88 -55 90 -71 3 -18 3 -2767 0 -2789 -1 -3 -31 -23 -68 -45 -38 -21 -76 -42
-85 -48 -9 -5 -29 -17 -45 -26 -15 -8 -188 -108 -383 -221 -315 -182 -1223
-707 -1683 -972 l-167 -97 -98 57 c-53 31 -117 68 -142 81 -25 14 -65 38 -90
53 -50 30 -92 54 -640 370 -429 248 -721 416 -1100 635 -140 81 -278 160 -306
176 -39 23 -53 36 -55 57 -3 22 -3 2742 0 2778 1 9 37 32 180 114 14 9 72 42
129 75 57 33 124 72 150 86 26 14 128 73 227 131 99 57 288 167 420 243 132
75 281 161 330 190 106 63 784 453 837 483 33 19 81 47 133 79 11 6 21 12 22
12 1 1 89 -49 195 -110z"/>
<path d="M2351 5183 c-45 -15 -79 -50 -95 -98 -11 -30 -13 -338 -12 -1605 l1
-1567 28 -36 c58 -77 -40 -71 1217 -72 1216 -2 1164 -4 1221 51 15 14 32 44
37 67 8 29 11 430 10 1247 l0 1205 -409 410 -409 410 -777 0 c-577 0 -786 -3
-812 -12z m1586 -553 c0 -131 3 -242 6 -247 3 -5 108 -8 234 -8 125 1 234 -1
241 -3 9 -3 12 -237 12 -1122 l0 -1118 -930 0 -930 1 0 1367 0 1368 683 0 684
0 0 -238z"/>
<path d="M2819 4036 c-1 -6 -2 -80 -3 -163 l-1 -153 65 0 c435 -3 1291 -1
1297 3 6 4 10 288 4 318 -2 12 -1361 7 -1362 -5z"/>
<path d="M2818 3383 c-2 -5 -3 -78 -3 -163 l0 -155 680 -1 c374 -1 682 2 685
6 3 5 5 77 4 162 l0 153 -682 3 c-374 1 -682 -1 -684 -5z"/>
<path d="M2819 2730 c-5 -23 -3 -304 3 -313 5 -8 180 -11 682 -12 372 0 676 2
677 5 5 25 2 305 -3 313 -5 9 -187 12 -683 12 -371 0 -676 -2 -676 -5z"/>
</g>
</svg>
